<svg width="459" height="176" viewBox="0 0 459 176" fill="none" xmlns="http://www.w3.org/2000/svg">
<line x1="52.6355" y1="82.5696" x2="371.584" y2="82.5696" stroke="black"/>
<line x1="85.6868" y1="103.953" x2="404.636" y2="103.953" stroke="black"/>
<line x1="227.491" y1="82.243" x2="227.491" y2="103.626" stroke="black"/>
<path d="M168.884 72.512V57.2H170.516V72.368C170.516 74.384 170.236 75.952 169.676 77.072C169.116 78.192 168.26 79.008 167.108 79.52L167.036 79.4C167.676 78.952 168.14 78.192 168.428 77.12C168.732 76.064 168.884 74.528 168.884 72.512ZM175.799 65.6C175.799 64.368 176.015 63.224 176.447 62.168C176.895 61.096 177.511 60.168 178.295 59.384C179.095 58.584 180.023 57.968 181.079 57.536C182.151 57.088 183.303 56.864 184.535 56.864C185.767 56.864 186.911 57.088 187.967 57.536C189.039 57.968 189.967 58.584 190.751 59.384C191.551 60.168 192.167 61.096 192.599 62.168C193.047 63.224 193.271 64.368 193.271 65.6C193.271 66.832 193.047 67.984 192.599 69.056C192.167 70.112 191.551 71.04 190.751 71.84C189.967 72.624 189.039 73.24 187.967 73.688C186.911 74.12 185.767 74.336 184.535 74.336C183.303 74.336 182.151 74.12 181.079 73.688C180.023 73.24 179.095 72.624 178.295 71.84C177.511 71.04 176.895 70.112 176.447 69.056C176.015 67.984 175.799 66.832 175.799 65.6ZM177.623 65.6C177.623 67.232 177.911 68.664 178.487 69.896C179.063 71.112 179.871 72.064 180.911 72.752C181.951 73.424 183.159 73.76 184.535 73.76C185.911 73.76 187.119 73.424 188.159 72.752C189.199 72.064 190.007 71.104 190.583 69.872C191.159 68.64 191.447 67.216 191.447 65.6C191.447 63.984 191.159 62.568 190.583 61.352C190.007 60.12 189.199 59.16 188.159 58.472C187.119 57.784 185.911 57.44 184.535 57.44C183.159 57.44 181.951 57.784 180.911 58.472C179.887 59.144 179.079 60.096 178.487 61.328C177.911 62.544 177.623 63.968 177.623 65.6ZM198.544 74V57.2H200.176V64.976H210.256V57.2H211.888V74H210.256V65.552H200.176V74H198.544ZM215.881 74L222.337 57.2H223.825L230.281 74H228.529L225.553 66.128H220.105L217.633 74H215.881ZM222.505 58.448L220.273 65.552H225.337L222.649 58.448H222.505ZM234.054 74L234.654 56.864H234.942L247.014 71.456H247.158L246.63 57.2H248.262L247.662 74.336H247.374L235.302 59.744H235.158L235.686 74H234.054ZM254.029 74L254.629 56.864H254.917L266.989 71.456H267.133L266.605 57.2H268.237L267.637 74.336H267.349L255.277 59.744H255.133L255.661 74H254.029ZM271.867 74L278.323 57.2H279.811L286.267 74H284.515L281.539 66.128H276.091L273.619 74H271.867ZM278.491 58.448L276.259 65.552H281.323L278.635 58.448H278.491Z" fill="black"/>
<path d="M192.12 129V112.2H195.12C197.056 112.2 198.56 112.616 199.632 113.448C200.704 114.264 201.24 115.408 201.24 116.88C201.24 118.352 200.704 119.504 199.632 120.336C198.56 121.152 197.056 121.56 195.12 121.56H193.752V129H192.12ZM195.12 112.776H193.752V120.984H195.12C198.048 120.984 199.512 119.616 199.512 116.88C199.512 114.144 198.048 112.776 195.12 112.776ZM206.048 112.2H209.263C210.959 112.2 212.272 112.56 213.2 113.28C214.144 113.984 214.616 114.976 214.616 116.256C214.616 117.248 214.32 118.072 213.728 118.728C213.152 119.384 212.312 119.824 211.208 120.048V120.192C212.264 120.4 213.128 120.896 213.799 121.68C214.472 122.464 214.976 123.432 215.312 124.584C215.616 125.64 215.912 126.464 216.2 127.056C216.504 127.632 216.832 128.048 217.184 128.304C217.552 128.56 217.984 128.744 218.479 128.856V129H217.496C216.792 129 216.208 128.872 215.744 128.616C215.296 128.36 214.912 127.928 214.592 127.32C214.272 126.712 213.968 125.872 213.68 124.8C213.216 123.152 212.6 121.984 211.832 121.296C211.064 120.608 210.128 120.264 209.023 120.264H208.88V119.832H209.023C211.6 119.832 212.888 118.648 212.888 116.28C212.888 113.944 211.68 112.776 209.263 112.776H207.68V129H206.048V112.2ZM221.686 129V112.2H223.318V129H221.686ZM229.441 129L230.041 111.864H230.329L242.401 126.456H242.545L242.017 112.2H243.649L243.049 129.336H242.761L230.689 114.744H230.545L231.073 129H229.441ZM260.455 129H247.735V128.52L258.439 112.68C258.183 112.68 257.599 112.712 256.687 112.776L248.359 113.376V112.2H260.359V112.68L249.655 128.52C249.927 128.52 250.511 128.488 251.407 128.424L260.455 127.776V129Z" fill="black"/>
</svg>
