<svg width="279" height="107" viewBox="0 0 279 107" fill="none" xmlns="http://www.w3.org/2000/svg">
<line x1="32" y1="50.0026" x2="225.906" y2="50.0026" stroke="black"/>
<line x1="52.0936" y1="63.0026" x2="246" y2="63.0026" stroke="black"/>
<line x1="138.5" y1="50" x2="138.5" y2="63" stroke="black"/>
<path d="M99.6547 43.008V32.8H100.743V42.912C100.743 44.256 100.556 45.3013 100.183 46.048C99.8094 46.7947 99.2387 47.3387 98.4707 47.68L98.4227 47.6C98.8494 47.3013 99.1587 46.7947 99.3507 46.08C99.5534 45.376 99.6547 44.352 99.6547 43.008ZM104.265 38.4C104.265 37.5787 104.409 36.816 104.697 36.112C104.995 35.3973 105.406 34.7787 105.929 34.256C106.462 33.7227 107.081 33.312 107.785 33.024C108.499 32.7253 109.267 32.576 110.089 32.576C110.91 32.576 111.673 32.7253 112.377 33.024C113.091 33.312 113.71 33.7227 114.233 34.256C114.766 34.7787 115.177 35.3973 115.465 36.112C115.763 36.816 115.913 37.5787 115.913 38.4C115.913 39.2213 115.763 39.9893 115.465 40.704C115.177 41.408 114.766 42.0267 114.233 42.56C113.71 43.0827 113.091 43.4933 112.377 43.792C111.673 44.08 110.91 44.224 110.089 44.224C109.267 44.224 108.499 44.08 107.785 43.792C107.081 43.4933 106.462 43.0827 105.929 42.56C105.406 42.0267 104.995 41.408 104.697 40.704C104.409 39.9893 104.265 39.2213 104.265 38.4ZM105.481 38.4C105.481 39.488 105.673 40.4427 106.057 41.264C106.441 42.0747 106.979 42.7093 107.673 43.168C108.366 43.616 109.171 43.84 110.089 43.84C111.006 43.84 111.811 43.616 112.505 43.168C113.198 42.7093 113.737 42.0693 114.121 41.248C114.505 40.4267 114.697 39.4773 114.697 38.4C114.697 37.3227 114.505 36.3787 114.121 35.568C113.737 34.7467 113.198 34.1067 112.505 33.648C111.811 33.1893 111.006 32.96 110.089 32.96C109.171 32.96 108.366 33.1893 107.673 33.648C106.99 34.096 106.451 34.7307 106.057 35.552C105.673 36.3627 105.481 37.312 105.481 38.4ZM119.428 44V32.8H120.516V37.984H127.236V32.8H128.324V44H127.236V38.368H120.516V44H119.428ZM130.986 44L135.29 32.8H136.282L140.586 44H139.418L137.434 38.752H133.802L132.154 44H130.986ZM135.402 33.632L133.914 38.368H137.29L135.498 33.632H135.402ZM143.102 44L143.502 32.576H143.694L151.742 42.304H151.838L151.486 32.8H152.574L152.174 44.224H151.982L143.934 34.496H143.838L144.19 44H143.102ZM156.418 44L156.818 32.576H157.01L165.058 42.304H165.154L164.802 32.8H165.89L165.49 44.224H165.298L157.25 34.496H157.154L157.506 44H156.418ZM168.31 44L172.614 32.8H173.606L177.91 44H176.742L174.758 38.752H171.126L169.478 44H168.31ZM172.726 33.632L171.238 38.368H174.614L172.822 33.632H172.726Z" fill="black"/>
<path d="M115.08 80V68.8H117.08C118.371 68.8 119.373 69.0773 120.088 69.632C120.803 70.176 121.16 70.9387 121.16 71.92C121.16 72.9013 120.803 73.6693 120.088 74.224C119.373 74.768 118.371 75.04 117.08 75.04H116.168V80H115.08ZM117.08 69.184H116.168V74.656H117.08C119.032 74.656 120.008 73.744 120.008 71.92C120.008 70.096 119.032 69.184 117.08 69.184ZM124.365 68.8H126.509C127.64 68.8 128.514 69.04 129.133 69.52C129.762 69.9893 130.077 70.6507 130.077 71.504C130.077 72.1653 129.88 72.7147 129.485 73.152C129.101 73.5893 128.541 73.8827 127.805 74.032V74.128C128.509 74.2667 129.085 74.5973 129.533 75.12C129.981 75.6427 130.317 76.288 130.541 77.056C130.744 77.76 130.941 78.3093 131.133 78.704C131.336 79.088 131.554 79.3653 131.789 79.536C132.034 79.7067 132.322 79.8293 132.653 79.904V80H131.997C131.528 80 131.138 79.9147 130.829 79.744C130.53 79.5733 130.274 79.2853 130.061 78.88C129.848 78.4747 129.645 77.9147 129.453 77.2C129.144 76.1013 128.733 75.3227 128.221 74.864C127.709 74.4053 127.085 74.176 126.349 74.176H126.253V73.888H126.349C128.066 73.888 128.925 73.0987 128.925 71.52C128.925 69.9627 128.12 69.184 126.509 69.184H125.453V80H124.365V68.8ZM134.791 80V68.8H135.879V80H134.791ZM139.961 80L140.361 68.576H140.553L148.601 78.304H148.697L148.345 68.8H149.433L149.033 80.224H148.841L140.793 70.496H140.697L141.049 80H139.961ZM160.637 80H152.157V79.68L159.293 69.12C159.122 69.12 158.733 69.1413 158.125 69.184L152.573 69.584V68.8H160.573V69.12L153.437 79.68C153.618 79.68 154.008 79.6587 154.605 79.616L160.637 79.184V80Z" fill="black"/>
</svg>
